{
    "streams": [
        {
            "index": 0,
            "codec_name": "hevc",
            "codec_long_name": "H.265 / HEVC (High Efficiency Video Coding)",
            "profile": "Main 10",
            "codec_type": "video",
            "codec_tag_string": "[0][0][0][0]",
            "codec_tag": "0x0000",
            "width": 1920,
            "height": 1080,
            "coded_width": 1920,
            "coded_height": 1080,
            "closed_captions": 0,
            "film_grain": 0,
            "has_b_frames": 2,
            "sample_aspect_ratio": "1:1",
            "display_aspect_ratio": "16:9",
            "pix_fmt": "yuv420p10le",
            "level": 120,
            "color_range": "tv",
            "color_space": "bt709",
            "color_transfer": "bt709",
            "color_primaries": "bt709",
            "chroma_location": "left",
            "refs": 1,
            "r_frame_rate": "24000/1001",
            "avg_frame_rate": "24000/1001",
            "time_base": "1/1000",
            "start_pts": 0,
            "start_time": "0.000000",
            "extradata_size": 2447,
            "disposition": {
                "default": 1,
                "dub": 0,
                "original": 0,
                "comment": 0,
                "lyrics": 0,
                "karaoke": 0,
                "forced": 0,
                "hearing_impaired": 0,
                "visual_impaired": 0,
                "clean_effects": 0,
                "attached_pic": 0,
                "timed_thumbnails": 0,
                "captions": 0,
                "descriptions": 0,
                "metadata": 0,
                "dependent": 0,
                "still_image": 0
            },
            "tags": {
                "BPS-eng": "1628508",
                "DURATION-eng": "00:23:42.004000000",
                "NUMBER_OF_FRAMES-eng": "34094",
                "NUMBER_OF_BYTES-eng": "289468192",
                "_STATISTICS_WRITING_APP-eng": "mkvmerge v53.0.0 ('Fool's Gold') 64-bit",
                "_STATISTICS_WRITING_DATE_UTC-eng": "2023-01-15 05:32:39",
                "_STATISTICS_TAGS-eng": "BPS DURATION NUMBER_OF_FRAMES NUMBER_OF_BYTES"
            }
        },
        {
            "index": 1,
            "codec_name": "aac",
            "codec_long_name": "AAC (Advanced Audio Coding)",
            "profile": "LC",
            "codec_type": "audio",
            "codec_tag_string": "[0][0][0][0]",
            "codec_tag": "0x0000",
            "sample_fmt": "fltp",
            "sample_rate": "48000",
            "channels": 2,
            "channel_layout": "stereo",
            "bits_per_sample": 0,
            "r_frame_rate": "0/0",
            "avg_frame_rate": "0/0",
            "time_base": "1/1000",
            "start_pts": 20,
            "start_time": "0.020000",
            "extradata_size": 2,
            "disposition": {
                "default": 0,
                "dub": 0,
                "original": 0,
                "comment": 0,
                "lyrics": 0,
                "karaoke": 0,
                "forced": 0,
                "hearing_impaired": 0,
                "visual_impaired": 0,
                "clean_effects": 0,
                "attached_pic": 0,
                "timed_thumbnails": 0,
                "captions": 0,
                "descriptions": 0,
                "metadata": 0,
                "dependent": 0,
                "still_image": 0
            },
            "tags": {
                "language": "jpn",
                "BPS-eng": "106266",
                "DURATION-eng": "00:23:42.037000000",
                "NUMBER_OF_FRAMES-eng": "66658",
                "NUMBER_OF_BYTES-eng": "18889440",
                "_STATISTICS_WRITING_APP-eng": "mkvmerge v53.0.0 ('Fool's Gold') 64-bit",
                "_STATISTICS_WRITING_DATE_UTC-eng": "2023-01-15 05:32:39",
                "_STATISTICS_TAGS-eng": "BPS DURATION NUMBER_OF_FRAMES NUMBER_OF_BYTES"
            }
        },
        {
            "index": 2,
            "codec_name": "subrip",
            "codec_long_name": "SubRip subtitle",
            "codec_type": "subtitle",
            "codec_tag_string": "[0][0][0][0]",
            "codec_tag": "0x0000",
            "r_frame_rate": "0/0",
            "avg_frame_rate": "0/0",
            "time_base": "1/1000",
            "start_pts": 0,
            "start_time": "0.000000",
            "duration_ts": 1422057,
            "duration": "1422.057000",
            "disposition": {
                "default": 0,
                "dub": 0,
                "original": 0,
                "comment": 0,
                "lyrics": 0,
                "karaoke": 0,
                "forced": 0,
                "hearing_impaired": 0,
                "visual_impaired": 0,
                "clean_effects": 0,
                "attached_pic": 0,
                "timed_thumbnails": 0,
                "captions": 0,
                "descriptions": 0,
                "metadata": 0,
                "dependent": 0,
                "still_image": 0
            },
            "tags": {
                "language": "eng",
                "BPS-eng": "49",
                "DURATION-eng": "00:23:34.663000000",
                "NUMBER_OF_FRAMES-eng": "321",
                "NUMBER_OF_BYTES-eng": "8818",
                "_STATISTICS_WRITING_APP-eng": "mkvmerge v53.0.0 ('Fool's Gold') 64-bit",
                "_STATISTICS_WRITING_DATE_UTC-eng": "2023-01-15 05:32:39",
                "_STATISTICS_TAGS-eng": "BPS DURATION NUMBER_OF_FRAMES NUMBER_OF_BYTES"
            }
        },
        {
            "index": 3,
            "codec_name": "subrip",
            "codec_long_name": "SubRip subtitle",
            "codec_type": "subtitle",
            "codec_tag_string": "[0][0][0][0]",
            "codec_tag": "0x0000",
            "r_frame_rate": "0/0",
            "avg_frame_rate": "0/0",
            "time_base": "1/1000",
            "start_pts": 0,
            "start_time": "0.000000",
            "duration_ts": 1422057,
            "duration": "1422.057000",
            "disposition": {
                "default": 0,
                "dub": 0,
                "original": 0,
                "comment": 0,
                "lyrics": 0,
                "karaoke": 0,
                "forced": 0,
                "hearing_impaired": 0,
                "visual_impaired": 0,
                "clean_effects": 0,
                "attached_pic": 0,
                "timed_thumbnails": 0,
                "captions": 0,
                "descriptions": 0,
                "metadata": 0,
                "dependent": 0,
                "still_image": 0
            },
            "tags": {
                "language": "eng",
                "BPS-eng": "64",
                "DURATION-eng": "00:22:07.660000000",
                "NUMBER_OF_FRAMES-eng": "421",
                "NUMBER_OF_BYTES-eng": "10669",
                "_STATISTICS_WRITING_APP-eng": "mkvmerge v53.0.0 ('Fool's Gold') 64-bit",
                "_STATISTICS_WRITING_DATE_UTC-eng": "2023-01-15 05:32:39",
                "_STATISTICS_TAGS-eng": "BPS DURATION NUMBER_OF_FRAMES NUMBER_OF_BYTES"
            }
        },
        {
            "index": 4,
            "codec_name": "subrip",
            "codec_long_name": "SubRip subtitle",
            "codec_type": "subtitle",
            "codec_tag_string": "[0][0][0][0]",
            "codec_tag": "0x0000",
            "r_frame_rate": "0/0",
            "avg_frame_rate": "0/0",
            "time_base": "1/1000",
            "start_pts": 0,
            "start_time": "0.000000",
            "duration_ts": 1422057,
            "duration": "1422.057000",
            "disposition": {
                "default": 0,
                "dub": 0,
                "original": 0,
                "comment": 0,
                "lyrics": 0,
                "karaoke": 0,
                "forced": 0,
                "hearing_impaired": 0,
                "visual_impaired": 0,
                "clean_effects": 0,
                "attached_pic": 0,
                "timed_thumbnails": 0,
                "captions": 0,
                "descriptions": 0,
                "metadata": 0,
                "dependent": 0,
                "still_image": 0
            },
            "tags": {
                "language": "cze",
                "BPS-eng": "48",
                "DURATION-eng": "00:23:34.538000000",
                "NUMBER_OF_FRAMES-eng": "321",
                "NUMBER_OF_BYTES-eng": "8531",
                "_STATISTICS_WRITING_APP-eng": "mkvmerge v53.0.0 ('Fool's Gold') 64-bit",
                "_STATISTICS_WRITING_DATE_UTC-eng": "2023-01-15 05:32:39",
                "_STATISTICS_TAGS-eng": "BPS DURATION NUMBER_OF_FRAMES NUMBER_OF_BYTES"
            }
        },
        {
            "index": 5,
            "codec_name": "subrip",
            "codec_long_name": "SubRip subtitle",
            "codec_type": "subtitle",
            "codec_tag_string": "[0][0][0][0]",
            "codec_tag": "0x0000",
            "r_frame_rate": "0/0",
            "avg_frame_rate": "0/0",
            "time_base": "1/1000",
            "start_pts": 0,
            "start_time": "0.000000",
            "duration_ts": 1422057,
            "duration": "1422.057000",
            "disposition": {
                "default": 0,
                "dub": 0,
                "original": 0,
                "comment": 0,
                "lyrics": 0,
                "karaoke": 0,
                "forced": 0,
                "hearing_impaired": 0,
                "visual_impaired": 0,
                "clean_effects": 0,
                "attached_pic": 0,
                "timed_thumbnails": 0,
                "captions": 0,
                "descriptions": 0,
                "metadata": 0,
                "dependent": 0,
                "still_image": 0
            },
            "tags": {
                "language": "dan",
                "BPS-eng": "48",
                "DURATION-eng": "00:23:34.663000000",
                "NUMBER_OF_FRAMES-eng": "321",
                "NUMBER_OF_BYTES-eng": "8625",
                "_STATISTICS_WRITING_APP-eng": "mkvmerge v53.0.0 ('Fool's Gold') 64-bit",
                "_STATISTICS_WRITING_DATE_UTC-eng": "2023-01-15 05:32:39",
                "_STATISTICS_TAGS-eng": "BPS DURATION NUMBER_OF_FRAMES NUMBER_OF_BYTES"
            }
        },
        {
            "index": 6,
            "codec_name": "subrip",
            "codec_long_name": "SubRip subtitle",
            "codec_type": "subtitle",
            "codec_tag_string": "[0][0][0][0]",
            "codec_tag": "0x0000",
            "r_frame_rate": "0/0",
            "avg_frame_rate": "0/0",
            "time_base": "1/1000",
            "start_pts": 0,
            "start_time": "0.000000",
            "duration_ts": 1422057,
            "duration": "1422.057000",
            "disposition": {
                "default": 0,
                "dub": 0,
                "original": 0,
                "comment": 0,
                "lyrics": 0,
                "karaoke": 0,
                "forced": 0,
                "hearing_impaired": 0,
                "visual_impaired": 0,
                "clean_effects": 0,
                "attached_pic": 0,
                "timed_thumbnails": 0,
                "captions": 0,
                "descriptions": 0,
                "metadata": 0,
                "dependent": 0,
                "still_image": 0
            },
            "tags": {
                "language": "ger",
                "BPS-eng": "51",
                "DURATION-eng": "00:23:34.496000000",
                "NUMBER_OF_FRAMES-eng": "321",
                "NUMBER_OF_BYTES-eng": "9052",
                "_STATISTICS_WRITING_APP-eng": "mkvmerge v53.0.0 ('Fool's Gold') 64-bit",
                "_STATISTICS_WRITING_DATE_UTC-eng": "2023-01-15 05:32:39",
                "_STATISTICS_TAGS-eng": "BPS DURATION NUMBER_OF_FRAMES NUMBER_OF_BYTES"
            }
        },
        {
            "index": 7,
            "codec_name": "subrip",
            "codec_long_name": "SubRip subtitle",
            "codec_type": "subtitle",
            "codec_tag_string": "[0][0][0][0]",
            "codec_tag": "0x0000",
            "r_frame_rate": "0/0",
            "avg_frame_rate": "0/0",
            "time_base": "1/1000",
            "start_pts": 0,
            "start_time": "0.000000",
            "duration_ts": 1422057,
            "duration": "1422.057000",
            "disposition": {
                "default": 0,
                "dub": 0,
                "original": 0,
                "comment": 0,
                "lyrics": 0,
                "karaoke": 0,
                "forced": 0,
                "hearing_impaired": 0,
                "visual_impaired": 0,
                "clean_effects": 0,
                "attached_pic": 0,
                "timed_thumbnails": 0,
                "captions": 0,
                "descriptions": 0,
                "metadata": 0,
                "dependent": 0,
                "still_image": 0
            },
            "tags": {
                "language": "gre",
                "BPS-eng": "85",
                "DURATION-eng": "00:23:34.538000000",
                "NUMBER_OF_FRAMES-eng": "322",
                "NUMBER_OF_BYTES-eng": "15178",
                "_STATISTICS_WRITING_APP-eng": "mkvmerge v53.0.0 ('Fool's Gold') 64-bit",
                "_STATISTICS_WRITING_DATE_UTC-eng": "2023-01-15 05:32:39",
                "_STATISTICS_TAGS-eng": "BPS DURATION NUMBER_OF_FRAMES NUMBER_OF_BYTES"
            }
        },
        {
            "index": 8,
            "codec_name": "subrip",
            "codec_long_name": "SubRip subtitle",
            "codec_type": "subtitle",
            "codec_tag_string": "[0][0][0][0]",
            "codec_tag": "0x0000",
            "r_frame_rate": "0/0",
            "avg_frame_rate": "0/0",
            "time_base": "1/1000",
            "start_pts": 0,
            "start_time": "0.000000",
            "duration_ts": 1422057,
            "duration": "1422.057000",
            "disposition": {
                "default": 0,
                "dub": 0,
                "original": 0,
                "comment": 0,
                "lyrics": 0,
                "karaoke": 0,
                "forced": 0,
                "hearing_impaired": 0,
                "visual_impaired": 0,
                "clean_effects": 0,
                "attached_pic": 0,
                "timed_thumbnails": 0,
                "captions": 0,
                "descriptions": 0,
                "metadata": 0,
                "dependent": 0,
                "still_image": 0
            },
            "tags": {
                "language": "spa",
                "BPS-eng": "48",
                "DURATION-eng": "00:23:34.663000000",
                "NUMBER_OF_FRAMES-eng": "322",
                "NUMBER_OF_BYTES-eng": "8635",
                "_STATISTICS_WRITING_APP-eng": "mkvmerge v53.0.0 ('Fool's Gold') 64-bit",
                "_STATISTICS_WRITING_DATE_UTC-eng": "2023-01-15 05:32:39",
                "_STATISTICS_TAGS-eng": "BPS DURATION NUMBER_OF_FRAMES NUMBER_OF_BYTES"
            }
        },
        {
            "index": 9,
            "codec_name": "subrip",
            "codec_long_name": "SubRip subtitle",
            "codec_type": "subtitle",
            "codec_tag_string": "[0][0][0][0]",
            "codec_tag": "0x0000",
            "r_frame_rate": "0/0",
            "avg_frame_rate": "0/0",
            "time_base": "1/1000",
            "start_pts": 0,
            "start_time": "0.000000",
            "duration_ts": 1422057,
            "duration": "1422.057000",
            "disposition": {
                "default": 0,
                "dub": 0,
                "original": 0,
                "comment": 0,
                "lyrics": 0,
                "karaoke": 0,
                "forced": 0,
                "hearing_impaired": 0,
                "visual_impaired": 0,
                "clean_effects": 0,
                "attached_pic": 0,
                "timed_thumbnails": 0,
                "captions": 0,
                "descriptions": 0,
                "metadata": 0,
                "dependent": 0,
                "still_image": 0
            },
            "tags": {
                "language": "spa",
                "BPS-eng": "52",
                "DURATION-eng": "00:23:34.538000000",
                "NUMBER_OF_FRAMES-eng": "321",
                "NUMBER_OF_BYTES-eng": "9256",
                "_STATISTICS_WRITING_APP-eng": "mkvmerge v53.0.0 ('Fool's Gold') 64-bit",
                "_STATISTICS_WRITING_DATE_UTC-eng": "2023-01-15 05:32:39",
                "_STATISTICS_TAGS-eng": "BPS DURATION NUMBER_OF_FRAMES NUMBER_OF_BYTES"
            }
        },
        {
            "index": 10,
            "codec_name": "subrip",
            "codec_long_name": "SubRip subtitle",
            "codec_type": "subtitle",
            "codec_tag_string": "[0][0][0][0]",
            "codec_tag": "0x0000",
            "r_frame_rate": "0/0",
            "avg_frame_rate": "0/0",
            "time_base": "1/1000",
            "start_pts": 0,
            "start_time": "0.000000",
            "duration_ts": 1422057,
            "duration": "1422.057000",
            "disposition": {
                "default": 0,
                "dub": 0,
                "original": 0,
                "comment": 0,
                "lyrics": 0,
                "karaoke": 0,
                "forced": 0,
                "hearing_impaired": 0,
                "visual_impaired": 0,
                "clean_effects": 0,
                "attached_pic": 0,
                "timed_thumbnails": 0,
                "captions": 0,
                "descriptions": 0,
                "metadata": 0,
                "dependent": 0,
                "still_image": 0
            },
            "tags": {
                "language": "fin",
                "BPS-eng": "50",
                "DURATION-eng": "00:23:34.663000000",
                "NUMBER_OF_FRAMES-eng": "319",
                "NUMBER_OF_BYTES-eng": "8950",
                "_STATISTICS_WRITING_APP-eng": "mkvmerge v53.0.0 ('Fool's Gold') 64-bit",
                "_STATISTICS_WRITING_DATE_UTC-eng": "2023-01-15 05:32:39",
                "_STATISTICS_TAGS-eng": "BPS DURATION NUMBER_OF_FRAMES NUMBER_OF_BYTES"
            }
        },
        {
            "index": 11,
            "codec_name": "subrip",
            "codec_long_name": "SubRip subtitle",
            "codec_type": "subtitle",
            "codec_tag_string": "[0][0][0][0]",
            "codec_tag": "0x0000",
            "r_frame_rate": "0/0",
            "avg_frame_rate": "0/0",
            "time_base": "1/1000",
            "start_pts": 0,
            "start_time": "0.000000",
            "duration_ts": 1422057,
            "duration": "1422.057000",
            "disposition": {
                "default": 0,
                "dub": 0,
                "original": 0,
                "comment": 0,
                "lyrics": 0,
                "karaoke": 0,
                "forced": 0,
                "hearing_impaired": 0,
                "visual_impaired": 0,
                "clean_effects": 0,
                "attached_pic": 0,
                "timed_thumbnails": 0,
                "captions": 0,
                "descriptions": 0,
                "metadata": 0,
                "dependent": 0,
                "still_image": 0
            },
            "tags": {
                "language": "fre",
                "BPS-eng": "52",
                "DURATION-eng": "00:23:34.663000000",
                "NUMBER_OF_FRAMES-eng": "323",
                "NUMBER_OF_BYTES-eng": "9354",
                "_STATISTICS_WRITING_APP-eng": "mkvmerge v53.0.0 ('Fool's Gold') 64-bit",
                "_STATISTICS_WRITING_DATE_UTC-eng": "2023-01-15 05:32:39",
                "_STATISTICS_TAGS-eng": "BPS DURATION NUMBER_OF_FRAMES NUMBER_OF_BYTES"
            }
        },
        {
            "index": 12,
            "codec_name": "subrip",
            "codec_long_name": "SubRip subtitle",
            "codec_type": "subtitle",
            "codec_tag_string": "[0][0][0][0]",
            "codec_tag": "0x0000",
            "r_frame_rate": "0/0",
            "avg_frame_rate": "0/0",
            "time_base": "1/1000",
            "start_pts": 0,
            "start_time": "0.000000",
            "duration_ts": 1422057,
            "duration": "1422.057000",
            "disposition": {
                "default": 0,
                "dub": 0,
                "original": 0,
                "comment": 0,
                "lyrics": 0,
                "karaoke": 0,
                "forced": 0,
                "hearing_impaired": 0,
                "visual_impaired": 0,
                "clean_effects": 0,
                "attached_pic": 0,
                "timed_thumbnails": 0,
                "captions": 0,
                "descriptions": 0,
                "metadata": 0,
                "dependent": 0,
                "still_image": 0
            },
            "tags": {
                "language": "hun",
                "BPS-eng": "47",
                "DURATION-eng": "00:23:34.538000000",
                "NUMBER_OF_FRAMES-eng": "323",
                "NUMBER_OF_BYTES-eng": "8401",
                "_STATISTICS_WRITING_APP-eng": "mkvmerge v53.0.0 ('Fool's Gold') 64-bit",
                "_STATISTICS_WRITING_DATE_UTC-eng": "2023-01-15 05:32:39",
                "_STATISTICS_TAGS-eng": "BPS DURATION NUMBER_OF_FRAMES NUMBER_OF_BYTES"
            }
        },
        {
            "index": 13,
            "codec_name": "subrip",
            "codec_long_name": "SubRip subtitle",
            "codec_type": "subtitle",
            "codec_tag_string": "[0][0][0][0]",
            "codec_tag": "0x0000",
            "r_frame_rate": "0/0",
            "avg_frame_rate": "0/0",
            "time_base": "1/1000",
            "start_pts": 0,
            "start_time": "0.000000",
            "duration_ts": 1422057,
            "duration": "1422.057000",
            "disposition": {
                "default": 0,
                "dub": 0,
                "original": 0,
                "comment": 0,
                "lyrics": 0,
                "karaoke": 0,
                "forced": 0,
                "hearing_impaired": 0,
                "visual_impaired": 0,
                "clean_effects": 0,
                "attached_pic": 0,
                "timed_thumbnails": 0,
                "captions": 0,
                "descriptions": 0,
                "metadata": 0,
                "dependent": 0,
                "still_image": 0
            },
            "tags": {
                "language": "ita",
                "BPS-eng": "51",
                "DURATION-eng": "00:23:34.997000000",
                "NUMBER_OF_FRAMES-eng": "322",
                "NUMBER_OF_BYTES-eng": "9151",
                "_STATISTICS_WRITING_APP-eng": "mkvmerge v53.0.0 ('Fool's Gold') 64-bit",
                "_STATISTICS_WRITING_DATE_UTC-eng": "2023-01-15 05:32:39",
                "_STATISTICS_TAGS-eng": "BPS DURATION NUMBER_OF_FRAMES NUMBER_OF_BYTES"
            }
        },
        {
            "index": 14,
            "codec_name": "subrip",
            "codec_long_name": "SubRip subtitle",
            "codec_type": "subtitle",
            "codec_tag_string": "[0][0][0][0]",
            "codec_tag": "0x0000",
            "r_frame_rate": "0/0",
            "avg_frame_rate": "0/0",
            "time_base": "1/1000",
            "start_pts": 0,
            "start_time": "0.000000",
            "duration_ts": 1422057,
            "duration": "1422.057000",
            "disposition": {
                "default": 0,
                "dub": 0,
                "original": 0,
                "comment": 0,
                "lyrics": 0,
                "karaoke": 0,
                "forced": 0,
                "hearing_impaired": 0,
                "visual_impaired": 0,
                "clean_effects": 0,
                "attached_pic": 0,
                "timed_thumbnails": 0,
                "captions": 0,
                "descriptions": 0,
                "metadata": 0,
                "dependent": 0,
                "still_image": 0
            },
            "tags": {
                "language": "kor",
                "BPS-eng": "48",
                "DURATION-eng": "00:23:34.246000000",
                "NUMBER_OF_FRAMES-eng": "286",
                "NUMBER_OF_BYTES-eng": "8555",
                "_STATISTICS_WRITING_APP-eng": "mkvmerge v53.0.0 ('Fool's Gold') 64-bit",
                "_STATISTICS_WRITING_DATE_UTC-eng": "2023-01-15 05:32:39",
                "_STATISTICS_TAGS-eng": "BPS DURATION NUMBER_OF_FRAMES NUMBER_OF_BYTES"
            }
        },
        {
            "index": 15,
            "codec_name": "subrip",
            "codec_long_name": "SubRip subtitle",
            "codec_type": "subtitle",
            "codec_tag_string": "[0][0][0][0]",
            "codec_tag": "0x0000",
            "r_frame_rate": "0/0",
            "avg_frame_rate": "0/0",
            "time_base": "1/1000",
            "start_pts": 0,
            "start_time": "0.000000",
            "duration_ts": 1422057,
            "duration": "1422.057000",
            "disposition": {
                "default": 0,
                "dub": 0,
                "original": 0,
                "comment": 0,
                "lyrics": 0,
                "karaoke": 0,
                "forced": 0,
                "hearing_impaired": 0,
                "visual_impaired": 0,
                "clean_effects": 0,
                "attached_pic": 0,
                "timed_thumbnails": 0,
                "captions": 0,
                "descriptions": 0,
                "metadata": 0,
                "dependent": 0,
                "still_image": 0
            },
            "tags": {
                "language": "dut",
                "BPS-eng": "47",
                "DURATION-eng": "00:23:34.663000000",
                "NUMBER_OF_FRAMES-eng": "322",
                "NUMBER_OF_BYTES-eng": "8456",
                "_STATISTICS_WRITING_APP-eng": "mkvmerge v53.0.0 ('Fool's Gold') 64-bit",
                "_STATISTICS_WRITING_DATE_UTC-eng": "2023-01-15 05:32:39",
                "_STATISTICS_TAGS-eng": "BPS DURATION NUMBER_OF_FRAMES NUMBER_OF_BYTES"
            }
        },
        {
            "index": 16,
            "codec_name": "subrip",
            "codec_long_name": "SubRip subtitle",
            "codec_type": "subtitle",
            "codec_tag_string": "[0][0][0][0]",
            "codec_tag": "0x0000",
            "r_frame_rate": "0/0",
            "avg_frame_rate": "0/0",
            "time_base": "1/1000",
            "start_pts": 0,
            "start_time": "0.000000",
            "duration_ts": 1422057,
            "duration": "1422.057000",
            "disposition": {
                "default": 0,
                "dub": 0,
                "original": 0,
                "comment": 0,
                "lyrics": 0,
                "karaoke": 0,
                "forced": 0,
                "hearing_impaired": 0,
                "visual_impaired": 0,
                "clean_effects": 0,
                "attached_pic": 0,
                "timed_thumbnails": 0,
                "captions": 0,
                "descriptions": 0,
                "metadata": 0,
                "dependent": 0,
                "still_image": 0
            },
            "tags": {
                "language": "nob",
                "BPS-eng": "48",
                "DURATION-eng": "00:23:34.538000000",
                "NUMBER_OF_FRAMES-eng": "323",
                "NUMBER_OF_BYTES-eng": "8558",
                "_STATISTICS_WRITING_APP-eng": "mkvmerge v53.0.0 ('Fool's Gold') 64-bit",
                "_STATISTICS_WRITING_DATE_UTC-eng": "2023-01-15 05:32:39",
                "_STATISTICS_TAGS-eng": "BPS DURATION NUMBER_OF_FRAMES NUMBER_OF_BYTES"
            }
        },
        {
            "index": 17,
            "codec_name": "subrip",
            "codec_long_name": "SubRip subtitle",
            "codec_type": "subtitle",
            "codec_tag_string": "[0][0][0][0]",
            "codec_tag": "0x0000",
            "r_frame_rate": "0/0",
            "avg_frame_rate": "0/0",
            "time_base": "1/1000",
            "start_pts": 0,
            "start_time": "0.000000",
            "duration_ts": 1422057,
            "duration": "1422.057000",
            "disposition": {
                "default": 0,
                "dub": 0,
                "original": 0,
                "comment": 0,
                "lyrics": 0,
                "karaoke": 0,
                "forced": 0,
                "hearing_impaired": 0,
                "visual_impaired": 0,
                "clean_effects": 0,
                "attached_pic": 0,
                "timed_thumbnails": 0,
                "captions": 0,
                "descriptions": 0,
                "metadata": 0,
                "dependent": 0,
                "still_image": 0
            },
            "tags": {
                "language": "pol",
                "BPS-eng": "45",
                "DURATION-eng": "00:23:34.538000000",
                "NUMBER_OF_FRAMES-eng": "320",
                "NUMBER_OF_BYTES-eng": "8074",
                "_STATISTICS_WRITING_APP-eng": "mkvmerge v53.0.0 ('Fool's Gold') 64-bit",
                "_STATISTICS_WRITING_DATE_UTC-eng": "2023-01-15 05:32:39",
                "_STATISTICS_TAGS-eng": "BPS DURATION NUMBER_OF_FRAMES NUMBER_OF_BYTES"
            }
        },
        {
            "index": 18,
            "codec_name": "subrip",
            "codec_long_name": "SubRip subtitle",
            "codec_type": "subtitle",
            "codec_tag_string": "[0][0][0][0]",
            "codec_tag": "0x0000",
            "r_frame_rate": "0/0",
            "avg_frame_rate": "0/0",
            "time_base": "1/1000",
            "start_pts": 0,
            "start_time": "0.000000",
            "duration_ts": 1422057,
            "duration": "1422.057000",
            "disposition": {
                "default": 0,
                "dub": 0,
                "original": 0,
                "comment": 0,
                "lyrics": 0,
                "karaoke": 0,
                "forced": 0,
                "hearing_impaired": 0,
                "visual_impaired": 0,
                "clean_effects": 0,
                "attached_pic": 0,
                "timed_thumbnails": 0,
                "captions": 0,
                "descriptions": 0,
                "metadata": 0,
                "dependent": 0,
                "still_image": 0
            },
            "tags": {
                "language": "por",
                "BPS-eng": "47",
                "DURATION-eng": "00:23:34.663000000",
                "NUMBER_OF_FRAMES-eng": "317",
                "NUMBER_OF_BYTES-eng": "8473",
                "_STATISTICS_WRITING_APP-eng": "mkvmerge v53.0.0 ('Fool's Gold') 64-bit",
                "_STATISTICS_WRITING_DATE_UTC-eng": "2023-01-15 05:32:39",
                "_STATISTICS_TAGS-eng": "BPS DURATION NUMBER_OF_FRAMES NUMBER_OF_BYTES"
            }
        },
        {
            "index": 19,
            "codec_name": "subrip",
            "codec_long_name": "SubRip subtitle",
            "codec_type": "subtitle",
            "codec_tag_string": "[0][0][0][0]",
            "codec_tag": "0x0000",
            "r_frame_rate": "0/0",
            "avg_frame_rate": "0/0",
            "time_base": "1/1000",
            "start_pts": 0,
            "start_time": "0.000000",
            "duration_ts": 1422057,
            "duration": "1422.057000",
            "disposition": {
                "default": 0,
                "dub": 0,
                "original": 0,
                "comment": 0,
                "lyrics": 0,
                "karaoke": 0,
                "forced": 0,
                "hearing_impaired": 0,
                "visual_impaired": 0,
                "clean_effects": 0,
                "attached_pic": 0,
                "timed_thumbnails": 0,
                "captions": 0,
                "descriptions": 0,
                "metadata": 0,
                "dependent": 0,
                "still_image": 0
            },
            "tags": {
                "language": "por",
                "BPS-eng": "50",
                "DURATION-eng": "00:23:34.538000000",
                "NUMBER_OF_FRAMES-eng": "323",
                "NUMBER_OF_BYTES-eng": "8917",
                "_STATISTICS_WRITING_APP-eng": "mkvmerge v53.0.0 ('Fool's Gold') 64-bit",
                "_STATISTICS_WRITING_DATE_UTC-eng": "2023-01-15 05:32:39",
                "_STATISTICS_TAGS-eng": "BPS DURATION NUMBER_OF_FRAMES NUMBER_OF_BYTES"
            }
        },
        {
            "index": 20,
            "codec_name": "subrip",
            "codec_long_name": "SubRip subtitle",
            "codec_type": "subtitle",
            "codec_tag_string": "[0][0][0][0]",
            "codec_tag": "0x0000",
            "r_frame_rate": "0/0",
            "avg_frame_rate": "0/0",
            "time_base": "1/1000",
            "start_pts": 0,
            "start_time": "0.000000",
            "duration_ts": 1422057,
            "duration": "1422.057000",
            "disposition": {
                "default": 0,
                "dub": 0,
                "original": 0,
                "comment": 0,
                "lyrics": 0,
                "karaoke": 0,
                "forced": 0,
                "hearing_impaired": 0,
                "visual_impaired": 0,
                "clean_effects": 0,
                "attached_pic": 0,
                "timed_thumbnails": 0,
                "captions": 0,
                "descriptions": 0,
                "metadata": 0,
                "dependent": 0,
                "still_image": 0
            },
            "tags": {
                "language": "rum",
                "BPS-eng": "51",
                "DURATION-eng": "00:23:34.663000000",
                "NUMBER_OF_FRAMES-eng": "322",
                "NUMBER_OF_BYTES-eng": "9095",
                "_STATISTICS_WRITING_APP-eng": "mkvmerge v53.0.0 ('Fool's Gold') 64-bit",
                "_STATISTICS_WRITING_DATE_UTC-eng": "2023-01-15 05:32:39",
                "_STATISTICS_TAGS-eng": "BPS DURATION NUMBER_OF_FRAMES NUMBER_OF_BYTES"
            }
        },
        {
            "index": 21,
            "codec_name": "subrip",
            "codec_long_name": "SubRip subtitle",
            "codec_type": "subtitle",
            "codec_tag_string": "[0][0][0][0]",
            "codec_tag": "0x0000",
            "r_frame_rate": "0/0",
            "avg_frame_rate": "0/0",
            "time_base": "1/1000",
            "start_pts": 0,
            "start_time": "0.000000",
            "duration_ts": 1422057,
            "duration": "1422.057000",
            "disposition": {
                "default": 0,
                "dub": 0,
                "original": 0,
                "comment": 0,
                "lyrics": 0,
                "karaoke": 0,
                "forced": 0,
                "hearing_impaired": 0,
                "visual_impaired": 0,
                "clean_effects": 0,
                "attached_pic": 0,
                "timed_thumbnails": 0,
                "captions": 0,
                "descriptions": 0,
                "metadata": 0,
                "dependent": 0,
                "still_image": 0
            },
            "tags": {
                "language": "slo",
                "BPS-eng": "51",
                "DURATION-eng": "00:23:34.538000000",
                "NUMBER_OF_FRAMES-eng": "321",
                "NUMBER_OF_BYTES-eng": "9051",
                "_STATISTICS_WRITING_APP-eng": "mkvmerge v53.0.0 ('Fool's Gold') 64-bit",
                "_STATISTICS_WRITING_DATE_UTC-eng": "2023-01-15 05:32:39",
                "_STATISTICS_TAGS-eng": "BPS DURATION NUMBER_OF_FRAMES NUMBER_OF_BYTES"
            }
        },
        {
            "index": 22,
            "codec_name": "subrip",
            "codec_long_name": "SubRip subtitle",
            "codec_type": "subtitle",
            "codec_tag_string": "[0][0][0][0]",
            "codec_tag": "0x0000",
            "r_frame_rate": "0/0",
            "avg_frame_rate": "0/0",
            "time_base": "1/1000",
            "start_pts": 0,
            "start_time": "0.000000",
            "duration_ts": 1422057,
            "duration": "1422.057000",
            "disposition": {
                "default": 0,
                "dub": 0,
                "original": 0,
                "comment": 0,
                "lyrics": 0,
                "karaoke": 0,
                "forced": 0,
                "hearing_impaired": 0,
                "visual_impaired": 0,
                "clean_effects": 0,
                "attached_pic": 0,
                "timed_thumbnails": 0,
                "captions": 0,
                "descriptions": 0,
                "metadata": 0,
                "dependent": 0,
                "still_image": 0
            },
            "tags": {
                "language": "swe",
                "BPS-eng": "46",
                "DURATION-eng": "00:23:34.538000000",
                "NUMBER_OF_FRAMES-eng": "322",
                "NUMBER_OF_BYTES-eng": "8263",
                "_STATISTICS_WRITING_APP-eng": "mkvmerge v53.0.0 ('Fool's Gold') 64-bit",
                "_STATISTICS_WRITING_DATE_UTC-eng": "2023-01-15 05:32:39",
                "_STATISTICS_TAGS-eng": "BPS DURATION NUMBER_OF_FRAMES NUMBER_OF_BYTES"
            }
        },
        {
            "index": 23,
            "codec_name": "subrip",
            "codec_long_name": "SubRip subtitle",
            "codec_type": "subtitle",
            "codec_tag_string": "[0][0][0][0]",
            "codec_tag": "0x0000",
            "r_frame_rate": "0/0",
            "avg_frame_rate": "0/0",
            "time_base": "1/1000",
            "start_pts": 0,
            "start_time": "0.000000",
            "duration_ts": 1422057,
            "duration": "1422.057000",
            "disposition": {
                "default": 0,
                "dub": 0,
                "original": 0,
                "comment": 0,
                "lyrics": 0,
                "karaoke": 0,
                "forced": 0,
                "hearing_impaired": 0,
                "visual_impaired": 0,
                "clean_effects": 0,
                "attached_pic": 0,
                "timed_thumbnails": 0,
                "captions": 0,
                "descriptions": 0,
                "metadata": 0,
                "dependent": 0,
                "still_image": 0
            },
            "tags": {
                "language": "tur",
                "BPS-eng": "50",
                "DURATION-eng": "00:23:34.538000000",
                "NUMBER_OF_FRAMES-eng": "321",
                "NUMBER_OF_BYTES-eng": "8914",
                "_STATISTICS_WRITING_APP-eng": "mkvmerge v53.0.0 ('Fool's Gold') 64-bit",
                "_STATISTICS_WRITING_DATE_UTC-eng": "2023-01-15 05:32:39",
                "_STATISTICS_TAGS-eng": "BPS DURATION NUMBER_OF_FRAMES NUMBER_OF_BYTES"
            }
        },
        {
            "index": 24,
            "codec_name": "subrip",
            "codec_long_name": "SubRip subtitle",
            "codec_type": "subtitle",
            "codec_tag_string": "[0][0][0][0]",
            "codec_tag": "0x0000",
            "r_frame_rate": "0/0",
            "avg_frame_rate": "0/0",
            "time_base": "1/1000",
            "start_pts": 0,
            "start_time": "0.000000",
            "duration_ts": 1422057,
            "duration": "1422.057000",
            "disposition": {
                "default": 0,
                "dub": 0,
                "original": 0,
                "comment": 0,
                "lyrics": 0,
                "karaoke": 0,
                "forced": 0,
                "hearing_impaired": 0,
                "visual_impaired": 0,
                "clean_effects": 0,
                "attached_pic": 0,
                "timed_thumbnails": 0,
                "captions": 0,
                "descriptions": 0,
                "metadata": 0,
                "dependent": 0,
                "still_image": 0
            },
            "tags": {
                "language": "chi",
                "BPS-eng": "42",
                "DURATION-eng": "00:23:34.413000000",
                "NUMBER_OF_FRAMES-eng": "320",
                "NUMBER_OF_BYTES-eng": "7436",
                "_STATISTICS_WRITING_APP-eng": "mkvmerge v53.0.0 ('Fool's Gold') 64-bit",
                "_STATISTICS_WRITING_DATE_UTC-eng": "2023-01-15 05:32:39",
                "_STATISTICS_TAGS-eng": "BPS DURATION NUMBER_OF_FRAMES NUMBER_OF_BYTES"
            }
        },
        {
            "index": 25,
            "codec_name": "subrip",
            "codec_long_name": "SubRip subtitle",
            "codec_type": "subtitle",
            "codec_tag_string": "[0][0][0][0]",
            "codec_tag": "0x0000",
            "r_frame_rate": "0/0",
            "avg_frame_rate": "0/0",
            "time_base": "1/1000",
            "start_pts": 0,
            "start_time": "0.000000",
            "duration_ts": 1422057,
            "duration": "1422.057000",
            "disposition": {
                "default": 0,
                "dub": 0,
                "original": 0,
                "comment": 0,
                "lyrics": 0,
                "karaoke": 0,
                "forced": 0,
                "hearing_impaired": 0,
                "visual_impaired": 0,
                "clean_effects": 0,
                "attached_pic": 0,
                "timed_thumbnails": 0,
                "captions": 0,
                "descriptions": 0,
                "metadata": 0,
                "dependent": 0,
                "still_image": 0
            },
            "tags": {
                "language": "chi",
                "BPS-eng": "43",
                "DURATION-eng": "00:23:34.413000000",
                "NUMBER_OF_FRAMES-eng": "320",
                "NUMBER_OF_BYTES-eng": "7647",
                "_STATISTICS_WRITING_APP-eng": "mkvmerge v53.0.0 ('Fool's Gold') 64-bit",
                "_STATISTICS_WRITING_DATE_UTC-eng": "2023-01-15 05:32:39",
                "_STATISTICS_TAGS-eng": "BPS DURATION NUMBER_OF_FRAMES NUMBER_OF_BYTES"
            }
        }
    ],
    "format": {
        "filename": "C:\\Temp\\Torrents\\[Anime Time] Tokyo Revengers S02E02 [1080p][HEVC 10bit x265][AAC][Multi Sub].mkv",
        "nb_streams": 26,
        "nb_programs": 0,
        "format_name": "matroska,webm",
        "format_long_name": "Matroska / WebM",
        "start_time": "0.000000",
        "duration": "1422.057000",
        "size": "309288430",
        "bit_rate": "1739949",
        "probe_score": 100,
        "tags": {
            "title": "Tokyo Revengers S02E02 UNCENSORED 1080p WEB H.264 AAC -Tsundere-Raws (DSNP)",
            "encoder": "libebml v1.4.1 + libmatroska v1.6.2",
            "creation_time": "2023-01-15T05:32:39.000000Z"
        }
    }
}